<svg xmlns="http://www.w3.org/2000/svg" width="43" height="47" viewBox="0 0 43 47">
    <g fill="none" fill-rule="evenodd">
        <path fill="#FFF" fill-opacity=".2" d="M17.5 6.5h8v38h-8zM13.5 12.5h4v15h-4zM25.5 12.5h4v9h-4zM26.5 22.5h14v22h-14z"/>
        <path fill="#FFF" fill-opacity=".2" d="M2.5 26.5h14v18h-14z"/>
        <path stroke="#FFF" stroke-linecap="round" stroke-linejoin="round" stroke-width="3" d="M29.5 21.5v-10h-4v-6h-8v6h-4v16M13.5 45.5h16M21.5 1.5v4M1.5 27.5h16v18h-16z"/>
        <path stroke="#FFF" stroke-linecap="round" stroke-linejoin="round" stroke-width="3" d="M25.5 21.5h16v24h-16zM31.5 27.5h4M31.5 33.5h4M31.5 39.5h4M7.5 33.5h4M7.5 39.5h4"/>
    </g>
</svg>
