<svg xmlns="http://www.w3.org/2000/svg" width="47" height="47" viewBox="0 0 47 47">
    <g fill="none" fill-rule="evenodd" stroke="#FFF" stroke-linecap="round" stroke-linejoin="round" stroke-width="3" transform="translate(1 1)">
        <circle cx="22.5" cy="22.5" r="22" fill="#FFF" fill-opacity=".2"/>
        <path d="M36.5 39.5c-.3-4.8-3-6.3-7-7.6-3-1-3.9-4.2-4.1-5.9M19.6 25.9c-.2 1.7-1.1 4.9-4.1 6-4 1.3-6.7 2.8-7 7.6"/>
        <path d="M22.5 26.5c-4.4 0-8-3.6-8-8v-2c0-4.4 3.6-8 8-8s8 3.6 8 8v2c0 4.4-3.6 8-8 8z"/>
    </g>
</svg>
